<mxfile host="app.diagrams.net" modified="2021-12-13T00:28:56.347Z" agent="5.0 (Windows NT 10.0; Win64; x64) AppleWebKit/537.36 (KHTML, like Gecko) Chrome/96.0.4664.93 Safari/537.36" etag="ubd54Uw2uwTuaadG-F1Q" version="15.9.1" type="github">
  <diagram id="C5RBs43oDa-KdzZeNtuy" name="Page-1">
    <mxGraphModel dx="1497" dy="734" grid="1" gridSize="10" guides="1" tooltips="1" connect="1" arrows="1" fold="1" page="1" pageScale="1" pageWidth="827" pageHeight="1169" math="0" shadow="0">
      <root>
        <mxCell id="WIyWlLk6GJQsqaUBKTNV-0" />
        <mxCell id="WIyWlLk6GJQsqaUBKTNV-1" parent="WIyWlLk6GJQsqaUBKTNV-0" />
        <mxCell id="eGIi2912gBRpws_oMbKR-4" value="" style="edgeStyle=orthogonalEdgeStyle;rounded=0;orthogonalLoop=1;jettySize=auto;html=1;fontSize=12;" edge="1" parent="WIyWlLk6GJQsqaUBKTNV-1" source="WIyWlLk6GJQsqaUBKTNV-3" target="eGIi2912gBRpws_oMbKR-0">
          <mxGeometry relative="1" as="geometry" />
        </mxCell>
        <mxCell id="WIyWlLk6GJQsqaUBKTNV-3" value="Start" style="rounded=1;whiteSpace=wrap;html=1;fontSize=12;glass=0;strokeWidth=1;shadow=0;arcSize=50;" parent="WIyWlLk6GJQsqaUBKTNV-1" vertex="1">
          <mxGeometry x="160" y="120" width="120" height="40" as="geometry" />
        </mxCell>
        <mxCell id="eGIi2912gBRpws_oMbKR-5" value="" style="edgeStyle=orthogonalEdgeStyle;rounded=0;orthogonalLoop=1;jettySize=auto;html=1;fontSize=12;" edge="1" parent="WIyWlLk6GJQsqaUBKTNV-1" source="eGIi2912gBRpws_oMbKR-0" target="eGIi2912gBRpws_oMbKR-2">
          <mxGeometry relative="1" as="geometry" />
        </mxCell>
        <mxCell id="eGIi2912gBRpws_oMbKR-0" value="&lt;font style=&quot;font-size: 12px&quot;&gt;Input&lt;br&gt;&lt;span id=&quot;docs-internal-guid-db92483f-7fff-cc46-9b35-0931695eb6aa&quot;&gt;&lt;p dir=&quot;ltr&quot; style=&quot;line-height: 1.38 ; text-align: justify ; margin-top: 0pt ; margin-bottom: 10pt&quot;&gt;&lt;span style=&quot;font-family: &amp;#34;times new roman&amp;#34; ; background-color: transparent ; vertical-align: baseline&quot;&gt;diameter,&amp;nbsp;&lt;/span&gt;&lt;span style=&quot;background-color: transparent ; font-family: &amp;#34;times new roman&amp;#34;&quot;&gt;thickness,&amp;nbsp;&lt;/span&gt;&lt;span style=&quot;background-color: transparent ; font-family: &amp;#34;times new roman&amp;#34;&quot;&gt;date,&amp;nbsp;&lt;/span&gt;&lt;span style=&quot;background-color: transparent ; font-family: &amp;#34;times new roman&amp;#34;&quot;&gt;customer_name&lt;/span&gt;&lt;/p&gt;&lt;/span&gt;&lt;/font&gt;" style="shape=parallelogram;perimeter=parallelogramPerimeter;whiteSpace=wrap;html=1;fixedSize=1;" vertex="1" parent="WIyWlLk6GJQsqaUBKTNV-1">
          <mxGeometry x="102.5" y="190" width="235" height="70" as="geometry" />
        </mxCell>
        <mxCell id="eGIi2912gBRpws_oMbKR-1" value="End" style="rounded=1;whiteSpace=wrap;html=1;fontSize=12;glass=0;strokeWidth=1;shadow=0;arcSize=50;" vertex="1" parent="WIyWlLk6GJQsqaUBKTNV-1">
          <mxGeometry x="160" y="620" width="120" height="40" as="geometry" />
        </mxCell>
        <mxCell id="eGIi2912gBRpws_oMbKR-6" value="" style="edgeStyle=orthogonalEdgeStyle;rounded=0;orthogonalLoop=1;jettySize=auto;html=1;fontSize=12;" edge="1" parent="WIyWlLk6GJQsqaUBKTNV-1" source="eGIi2912gBRpws_oMbKR-2" target="eGIi2912gBRpws_oMbKR-3">
          <mxGeometry relative="1" as="geometry" />
        </mxCell>
        <mxCell id="eGIi2912gBRpws_oMbKR-2" value="Convert thickness to centimeter&lt;br&gt;&lt;br&gt;calculate pancake_size" style="rounded=0;whiteSpace=wrap;html=1;fontSize=12;" vertex="1" parent="WIyWlLk6GJQsqaUBKTNV-1">
          <mxGeometry x="135" y="290" width="170" height="80" as="geometry" />
        </mxCell>
        <mxCell id="eGIi2912gBRpws_oMbKR-8" value="" style="edgeStyle=orthogonalEdgeStyle;rounded=0;orthogonalLoop=1;jettySize=auto;html=1;fontSize=12;" edge="1" parent="WIyWlLk6GJQsqaUBKTNV-1" source="eGIi2912gBRpws_oMbKR-3" target="eGIi2912gBRpws_oMbKR-7">
          <mxGeometry relative="1" as="geometry" />
        </mxCell>
        <mxCell id="eGIi2912gBRpws_oMbKR-3" value="calculate minimum_size from pancake_size &lt;br&gt;&lt;br&gt;calculate maximum_size from pancake_size" style="rounded=0;whiteSpace=wrap;html=1;fontSize=12;" vertex="1" parent="WIyWlLk6GJQsqaUBKTNV-1">
          <mxGeometry x="130" y="400" width="180" height="90" as="geometry" />
        </mxCell>
        <mxCell id="eGIi2912gBRpws_oMbKR-9" value="" style="edgeStyle=orthogonalEdgeStyle;rounded=0;orthogonalLoop=1;jettySize=auto;html=1;fontSize=12;" edge="1" parent="WIyWlLk6GJQsqaUBKTNV-1" source="eGIi2912gBRpws_oMbKR-7" target="eGIi2912gBRpws_oMbKR-1">
          <mxGeometry relative="1" as="geometry" />
        </mxCell>
        <mxCell id="eGIi2912gBRpws_oMbKR-7" value="&lt;font style=&quot;font-size: 12px&quot;&gt;&lt;span style=&quot;text-align: justify&quot;&gt;Print&lt;br&gt;&lt;/span&gt;&lt;span style=&quot;font-family: &amp;#34;times new roman&amp;#34; ; text-align: justify&quot;&gt;minimum_size&lt;br&gt;maximum_size&lt;br&gt;average_size&lt;/span&gt;&lt;/font&gt;" style="shape=parallelogram;perimeter=parallelogramPerimeter;whiteSpace=wrap;html=1;fixedSize=1;" vertex="1" parent="WIyWlLk6GJQsqaUBKTNV-1">
          <mxGeometry x="98" y="518" width="244" height="71" as="geometry" />
        </mxCell>
      </root>
    </mxGraphModel>
  </diagram>
</mxfile>
